<?xml version="1.0" standalone="no"?>
<!DOCTYPE svg PUBLIC "-//W3C//DTD SVG 1.1//EN" "http://www.w3.org/Graphics/SVG/1.1/DTD/svg11.dtd" >
<svg xmlns="http://www.w3.org/2000/svg">
<metadata>Generated by IcoMoon</metadata>
<defs>
<font id="Fixer" horiz-adv-x="512">
<font-face units-per-em="512" ascent="480" descent="-32" />
<missing-glyph horiz-adv-x="512" />
<glyph unicode="&#x20;" d="" horiz-adv-x="256" />
<glyph unicode="&#x30;" d="M381.005 165.657h-260.352c-8.858 0-17.664 1.459-26.189 4.199-39.654 11.955-67.686 49.639-67.686 91.597 0 52.583 42.599 95.437 95.104 95.795 10.598 57.549 61.568 101.606 121.754 101.606 51.303 0 96.103-31.027 114.714-77.389 6.016 1.024 12.083 1.562 18.176 1.562 59.93 0 108.697-48.717 108.697-108.621 0-47.744-30.541-89.421-76.058-103.706-8.346-3.251-18.176-5.043-28.16-5.043v0zM122.599 320.281c-32.487 0-58.88-26.393-58.88-58.854 0-25.779 17.203-48.922 41.856-56.32 5.299-1.767 10.112-2.509 15.079-2.509h260.352c5.504 0 10.906 0.998 16.103 2.969 31.027 9.779 51.2 37.274 51.2 68.813 0 39.526-32.231 71.705-71.783 71.705-8.089 0-16.256-1.459-24.192-4.301l-19.481-6.963-4.787 20.147c-9.267 39.373-43.955 66.918-84.429 66.918-46.925 0-85.862-38.195-86.809-85.12l-0.487-22.221-21.76 4.506c-3.968 0.845-7.91 1.229-11.981 1.229v0zM135.143 68.941c-3.097 0-6.272 0.793-9.191 2.509-8.858 5.043-11.879 16.358-6.784 25.19l20.608 35.738c5.069 8.858 16.384 11.904 25.19 6.759 8.857-5.043 11.904-16.358 6.81-25.19l-20.608-35.738c-3.405-5.913-9.651-9.267-16.025-9.267v0zM233.113 68.941c-3.097 0-6.272 0.793-9.19 2.457-8.832 5.094-11.879 16.409-6.784 25.241l20.557 35.738c5.095 8.858 16.41 11.853 25.216 6.81 8.858-5.094 11.904-16.409 6.835-25.241l-20.583-35.738c-3.405-5.913-9.651-9.267-16.051-9.267v0zM331.059 68.941c-3.098 0-6.272 0.793-9.19 2.509-8.858 5.043-11.878 16.358-6.81 25.19l20.608 35.738c5.094 8.858 16.409 11.904 25.216 6.759 8.858-5.043 11.904-16.358 6.784-25.19l-20.608-35.738c-3.379-5.913-9.625-9.267-16-9.267v0zM164.121 1.945c-3.149 0-6.323 0.793-9.191 2.509-8.857 5.094-11.879 16.409-6.81 25.241l20.659 35.712c5.12 8.858 16.41 11.853 25.242 6.759s11.879-16.409 6.758-25.241l-20.659-35.712c-3.43-5.965-9.625-9.267-16-9.267v0zM262.093 1.945c-3.098 0-6.272 0.793-9.19 2.509-8.857 5.094-11.879 16.358-6.784 25.19l20.557 35.712c5.094 8.858 16.384 11.904 25.216 6.81s11.904-16.409 6.784-25.241l-20.557-35.661c-3.405-5.965-9.651-9.318-16.026-9.318v0z" />
<glyph unicode="&#x31;" d="M506.573 285.44c0 25.805-8.576 50.483-24.397 70.681 1.28 5.888 1.869 11.648 1.869 17.331 0 49.843-40.55 90.394-90.394 90.394-6.528 0-13.031-0.743-19.481-2.176-16.64 15.846-38.502 24.729-61.747 24.729-27.443 0-52.762-12.288-69.606-32.743-18.688 12.519-40.55 19.226-63.513 19.226-49.075 0-91.827-30.643-108.135-75.981-38.323-10.803-65.741-45.926-65.741-86.63 0-39.526 25.472-73.165 60.877-85.453-4.429-12.314-6.707-25.344-6.707-38.631 0-63.514 51.712-115.226 115.174-115.226 3.277 0 6.4 0.691 9.625 0.973v-77.107c0-11.289 9.165-20.429 20.454-20.429h102.297c11.289 0 20.454 9.139 20.454 20.454v101.351c16.051-13.286 36.122-20.736 57.011-20.736 49.869 0 90.419 40.55 90.419 90.394 0 11.776-2.279 23.296-6.733 34.074 24.269 21.658 38.272 52.48 38.272 85.504zM225.331 15.309v66.509c0 0.461-0.231 0.793-0.256 1.255 11.904 5.837 22.989 13.337 32.384 23.014 8.96-5.325 18.944-8.729 29.235-10.649v-80.128h-61.363zM431.079 222.899c-4.685-2.995-7.962-7.757-9.063-13.209-1.075-5.453 0.077-11.136 3.251-15.693 5.837-8.371 8.858-18.099 8.858-28.135 0-27.264-22.195-49.485-49.51-49.485-14.106 0-27.597 6.272-37.069 17.229-5.939 6.861-15.642 8.986-23.885 5.274-19.277-8.704-41.011-4.199-55.168 10.010-4.403 4.352-10.394 6.425-16.589 5.863-6.093-0.64-11.571-3.993-14.976-9.113-13.85-21.145-37.069-33.767-62.131-33.767-40.96 0-74.266 33.357-74.266 74.317 0 15.232 4.685 29.926 13.543 42.496 4.403 6.221 4.941 14.387 1.433 21.197-3.507 6.784-10.547 11.034-18.176 11.034-0.589 0-1.485-0.051-2.304-0.154-26.931 0.486-48.691 22.477-48.691 49.51 0 24.755 18.688 45.721 43.469 48.768 8.499 1.049 15.437 7.296 17.408 15.641 7.91 33.715 37.555 57.293 72.064 57.293 20.403 0 39.475-8.269 53.734-23.27 4.813-5.043 11.802-7.245 18.56-6.042 6.835 1.28 12.518 5.863 15.181 12.288 7.705 18.56 25.651 30.541 45.671 30.541 15.309 0 29.543-7.168 39.091-19.635 5.555-7.296 15.309-9.959 23.834-6.553 6.016 2.406 12.185 3.609 18.304 3.609 27.264 0 49.51-22.169 49.51-49.485 0-4.864-0.921-9.933-2.969-15.897-2.432-7.219-0.615-15.258 4.659-20.736 13.44-13.978 20.839-32.205 20.839-51.379-0.026-25.344-12.902-48.717-34.611-62.515z" />
<glyph unicode="&#x32;" d="M437.504 372.941l15.36 15.385c8.32 8.294 8.32 21.785 0 30.106-8.294 8.294-21.786 8.294-30.080 0l-15.514-15.514c-56.064 48.231-125.594 72.627-195.251 72.627-67.507 0-134.963-22.656-190.157-67.942 12.672-5.453 24.525-13.363 34.867-23.705 24.269-24.295 35.123-56.96 32.486-88.73 3.097 0.256 6.221 0.41 9.344 0.41 28.749 0 57.472-10.983 79.437-32.845 16.845-16.973 26.778-37.965 30.643-59.827-1.408-0.845-2.867-1.51-4.071-2.688l-116.608-116.608c-5.017-5.017-11.699-7.808-18.816-7.808-7.091 0-13.799 2.765-18.816 7.808-10.343 10.368-10.343 27.238 0 37.632 8.32 8.295 8.32 21.786 0 30.106-8.294 8.295-21.785 8.295-30.080 0-26.983-26.983-26.983-70.861 0-97.817 13.056-13.056 30.413-20.25 48.896-20.25s35.865 7.194 48.922 20.25l116.582 116.633c0.743 0.743 1.101 1.715 1.69 2.586 22.989-3.43 45.159-13.568 62.822-31.257 24.371-24.371 35.149-57.011 32.538-88.704 2.995 0.256 6.016 0.358 9.063 0.358 28.825 0 57.6-10.957 79.616-32.896 10.394-10.291 18.176-22.195 23.603-34.918 92.672 112.743 90.445 277.197-6.477 387.61zM441.549 58.547c-20.199 17.28-44.185 28.902-69.939 34.074-5.913 29.594-20.48 57.088-42.342 78.899-21.863 21.888-49.178 36.429-78.925 42.317-5.939 29.568-20.48 57.063-42.291 79.002-21.939 21.863-49.255 36.352-78.925 42.24-5.12 25.625-16.717 49.664-33.92 69.837 35.891 18.279 76.032 28.032 116.813 28.032 68.761 0 133.427-26.777 182.093-75.443 80.743-80.691 97.613-201.37 47.437-298.957z" />
<glyph unicode="&#x33;" d="M458.342 110.464l-28.416 36.301c5.76 3.993 10.471 9.472 13.671 16 7.014 14.438 5.223 31.667-4.685 44.313l-28.416 36.327c5.76 4.019 10.471 9.472 13.671 16.025 7.014 14.439 5.223 31.667-4.736 44.314l-130.329 166.477c-7.962 10.24-20.147 16.179-33.075 16.179-12.953 0-25.139-5.913-33.101-16.128l-65.255-83.225-65.126-83.277c-9.933-12.672-11.751-29.875-4.685-44.313 3.174-6.554 7.936-12.032 13.671-16.025l-28.416-36.327c-9.959-12.647-11.751-29.875-4.71-44.313 3.174-6.528 7.91-12.007 13.645-16l-28.416-36.301c-9.907-12.647-11.725-29.875-4.71-44.313 7.066-14.464 21.76-23.654 37.862-23.654h113.971v-47.079c0.025-11.648 9.421-21.043 21.043-21.043h68.352c11.623 0 21.017 9.395 21.017 21.017v47.079h114.022c16.103 0 30.771 9.165 37.863 23.654 6.989 14.438 5.197 31.642-4.711 44.313zM269.133 16.461h-26.317v26.035h26.317v-26.035zM256.026 84.582h-169.216l75.597 96.615h-56.192l74.931 95.667 0.691 0.973h-56.192l130.381 166.502 130.329-166.502h-56.218l0.768-0.973 74.88-95.667h-56.166l75.597-96.615h-169.19z" />
<glyph unicode="&#x34;" d="M450.253 203.443c-1.613 0.103-3.2 0.205-4.864 0.205-69.529 0-131.072-34.329-169.063-86.784v83.738c94.797 10.189 168.857 90.624 168.857 188.032v31.334c0 9.625-6.759 17.894-16.154 19.865-28.109 5.863-56.141 4.915-82.663-1.357-24.525 21.939-55.296 38.425-90.573 47.36-3.097 0.819-6.451 0.743-9.549-0.179-31.693-9.472-59.673-25.728-82.355-46.745-26.035 5.913-53.504 6.681-80.921 0.921-9.395-1.971-16.153-10.291-16.153-19.891v-31.309c0-97.408 74.087-177.843 168.857-188.032v-83.687c-37.99 52.403-99.559 86.707-169.063 86.707-1.613 0-3.251-0.103-6.681-0.307-10.983-0.333-19.712-9.344-19.712-20.352 0.23-114.969 93.901-208.563 208.896-208.563 1.408 0 2.97 0.103 5.632 0.256 0.435-0.026 0.793-0.256 1.229-0.256 0.563 0 1.024 0.281 1.587 0.333 0.205-0.026 0.384-0.128 0.563-0.128 1.587-0.103 3.123-0.205 4.736-0.205 115.021 0 208.743 93.594 208.896 208.589 0.051 11.008-10.496 20.147-21.504 20.454zM251.827 449.817c20.48-5.709 38.938-14.438 54.963-25.447-18.637-9.139-35.942-21.12-50.816-36.121-15.334 15.488-33.229 27.776-52.557 37.017 14.362 10.317 30.566 18.739 48.41 24.55zM107.443 388.659v13.927c51.635 5.222 101.017-16.615 132.429-57.523 7.706-10.010 24.525-10.010 32.205 0 31.437 40.934 80.589 62.541 132.454 57.549v-13.952c0-81.894-66.662-148.531-148.557-148.531s-148.531 66.611-148.531 148.531zM82.176 162.329c78.515-7.245 141.721-68.787 151.424-146.585-78.515 7.193-141.671 68.736-151.424 146.586zM278.4 15.744c9.753 77.824 72.909 139.315 151.424 146.585-9.728-77.85-72.909-139.366-151.424-146.586z" />
<glyph unicode="&#x35;" d="M481.843 445.056c-2.304 4.889-6.221 8.858-11.161 11.136-42.214 19.789-89.293 30.208-136.089 30.208-85.299 0-165.478-33.203-225.767-93.466-90.855-90.88-117.76-228.25-69.632-346.675l-32.358-32.384c-9.063-9.037-9.063-23.68 0-32.691 4.505-4.531 10.445-6.784 16.358-6.784 5.888 0 11.827 2.253 16.358 6.784l32.563 32.563c38.169-15.462 79.437-24.038 120.704-24.038 85.274 0 165.453 33.203 225.741 93.466 94.822 94.797 120.243 240.256 63.283 361.882zM165.095 374.887c-0.077 1.843-0.691 3.481-1.536 4.992 27.341 22.067 58.291 38.502 91.494 48.563l7.705-170.189c0.051-1.383 0.461-2.663 0.921-3.866l-89.088-89.114-9.498 209.613zM447.974 405.965c18.791-49.843 22.298-103.245 11.571-153.754l-158.131 7.219 146.56 146.535zM431.462 422.169l-146.406-146.406-7.168 158.387c18.457 3.891 37.401 5.99 56.704 5.99 33.024 0 65.997-6.374 96.87-17.971zM141.517 360.217c0.358 0.359 0.743 0.64 1.075 0.973l9.728-214.989c0.051-0.896 0.384-1.69 0.614-2.56l-73.523-73.523c-37.581 99.84-13.927 214.042 62.106 290.099zM192.819 35.942c-32.999 0-65.997 6.4-96.871 17.997l73.344 73.344c0.845-0.231 1.613-0.563 2.535-0.615l214.989-9.779c-0.333-0.333-0.615-0.691-0.947-1.024-51.507-51.507-120.089-79.923-193.049-79.923zM405.427 137.984c-1.485 0.793-3.123 1.382-4.915 1.459l-209.587 9.498 89.113 89.114c1.203-0.512 2.483-0.896 3.865-0.973l169.677-7.705c-9.959-32.871-26.137-63.949-48.154-91.392z" />
<glyph unicode="&#x36;" d="M183.885-3.738v0c-16.41 0-32.025 7.322-42.906 20.096l-47.104 56.525c-15.181 17.894-45.901 80.563-50.509 103.014l-9.831 41.702c-5.735 28.032 5.581 60.083 26.112 75.111l88.448 73.088c26.624 19.635 64.819 2.253 74.675-27.392l5.069-15.513c7.629-23.066 7.706-58.547 0.154-80.743l-16.179-47.949c-4.659-13.747-2.637-38.502 4.25-51.891l25.19-49.152c13.338-25.882 7.27-59.392-13.773-76.314l-11.802-9.523c-8.96-7.245-19.942-11.059-31.795-11.059v0zM173.671 337.049c-1.178 0-2.048-0.231-2.662-0.691l-88.474-73.088c-8.576-6.349-15.411-23.757-12.57-37.683l9.882-41.651c3.405-16.666 31.616-74.061 42.599-87.040l47.104-56.525c3.609-4.199 8.986-6.81 14.362-6.81v0c2.253 0 5.555 0.486 8.371 2.765l11.827 9.523c6.554 5.274 9.651 19.303 4.019 30.233l-25.216 49.178c-11.597 22.605-14.362 57.395-6.375 80.87l16.179 47.949c5.018 14.823 4.889 41.497-0.256 57.088l-5.145 15.514c-2.073 6.195-8.73 10.368-13.645 10.368v0zM194.993 436.637c3.76-18.438-6.454-36.090-22.815-39.426s-32.671 8.906-36.431 27.344c-3.76 18.438 6.454 36.090 22.815 39.426s32.671-8.906 36.431-27.344zM129.962 400.63c3.25-15.99-5.617-31.289-19.805-34.173s-28.325 7.74-31.575 23.73c-3.25 15.989 5.617 31.289 19.805 34.173s28.325-7.74 31.575-23.73zM82.134 355.279c2.89-14.172-4.942-27.735-17.492-30.294s-25.068 6.854-27.957 21.025c-2.89 14.171 4.942 27.735 17.492 30.294s25.068-6.854 27.958-21.025zM41.104 305.821c2.578-12.649-4.419-24.755-15.627-27.039s-22.384 6.118-24.962 18.767c-2.578 12.649 4.418 24.755 15.627 27.039s22.384-6.118 24.962-18.767zM328.115-3.738c-11.853 0-22.861 3.763-31.769 10.983l-11.878 9.6c-20.966 16.896-27.059 50.432-13.747 76.288l25.19 49.152c6.861 13.389 8.909 38.144 4.25 51.917l-16.231 47.923c-7.501 22.272-7.424 57.754 0.205 80.768l5.094 15.462c6.912 20.839 27.52 35.968 49.075 35.968 9.139 0 17.69-2.714 24.73-7.885l90.163-74.445c19.712-14.413 30.976-46.439 25.344-73.907l-10.112-42.752c-4.454-21.939-35.175-84.633-50.457-102.605l-46.925-56.269c-10.854-12.851-26.471-20.199-42.931-20.199v0zM338.329 337.049c-4.889 0-11.597-4.173-13.619-10.368l-5.094-15.463c-5.171-15.565-5.299-42.24-0.307-57.088l16.205-47.949c7.962-23.501 5.197-58.24-6.375-80.87l-25.19-49.152c-5.658-10.957-2.56-24.986 3.942-30.233l11.878-9.575c2.791-2.279 6.118-2.739 8.371-2.739 5.376 0 10.752 2.611 14.413 6.938l46.899 56.295c11.111 13.107 39.322 70.451 42.624 86.605l10.112 42.752c2.688 13.363-4.122 30.746-11.853 36.454l-90.163 74.419c0.256-0.307-0.666-0.025-1.843-0.025v0zM317.029 436.611c3.762 18.438 20.063 30.682 36.409 27.346s26.548-20.986 22.786-39.424c-3.762-18.438-20.063-30.682-36.409-27.346s-26.548 20.986-22.786 39.424zM382.087 400.648c3.253 15.988 17.38 26.61 31.553 23.726s23.025-18.183 19.772-34.171c-3.253-15.988-17.38-26.611-31.553-23.727s-23.025 18.183-19.772 34.171zM429.874 355.243c2.89 14.171 15.407 23.585 27.957 21.026s20.382-16.123 17.493-30.294c-2.89-14.171-15.407-23.585-27.957-21.026s-20.382 16.123-17.493 30.294zM470.841 305.82c2.575 12.635 13.748 21.026 24.957 18.742s18.207-14.379 15.632-27.014c-2.575-12.635-13.748-21.026-24.957-18.742s-18.207 14.378-15.632 27.014z" />
<glyph unicode="&#x37;" d="M256 106.24c-68.454 0-124.109 55.705-124.109 124.16s55.654 124.16 124.109 124.16c68.48 0 124.135-55.705 124.135-124.16s-55.654-124.16-124.135-124.16v0zM256 317.594c-48.051 0-87.168-39.117-87.168-87.194s39.117-87.194 87.168-87.194c48.077 0 87.193 39.117 87.193 87.194s-39.117 87.194-87.194 87.194v0zM258.56 389.785c-10.189 0-18.483 8.243-18.483 18.458v41.241c0 10.189 8.269 18.483 18.483 18.483s18.483-8.269 18.483-18.483v-41.241c-0.026-10.214-8.269-18.458-18.483-18.458v0zM169.344 367.232c-6.4 0-12.595 3.303-16.025 9.242l-20.633 35.686c-5.069 8.832-2.048 20.122 6.81 25.216 8.806 5.12 20.096 2.099 25.19-6.758l20.659-35.687c5.069-8.832 2.048-20.147-6.784-25.242-2.918-1.664-6.093-2.457-9.216-2.457v0zM103.245 303.079c-3.149 0-6.323 0.793-9.191 2.483l-35.737 20.608c-8.832 5.12-11.853 16.435-6.758 25.242 5.12 8.857 16.435 11.878 25.242 6.758l35.737-20.633c8.832-5.12 11.879-16.435 6.758-25.242-3.456-5.913-9.677-9.216-16.051-9.216v0zM78.183 214.502h-41.216c-10.215 0-18.483 8.269-18.483 18.483s8.243 18.483 18.483 18.483h41.216c10.189 0 18.483-8.269 18.483-18.483s-8.294-18.483-18.483-18.483v0zM65.049 104.627c-6.4 0-12.595 3.328-16.026 9.241-5.12 8.832-2.099 20.122 6.758 25.216l35.712 20.608c8.832 5.12 20.096 2.048 25.216-6.759 5.12-8.858 2.099-20.147-6.758-25.241l-35.712-20.582c-2.893-1.69-6.067-2.483-9.191-2.483v0zM144.281 23.501c-3.149 0-6.323 0.793-9.242 2.483-8.832 5.094-11.879 16.384-6.758 25.216l20.583 35.687c5.12 8.858 16.358 11.878 25.242 6.784 8.857-5.094 11.879-16.409 6.758-25.216l-20.583-35.712c-3.43-5.913-9.625-9.241-16-9.241v0zM253.415-7.143c-10.189 0-18.458 8.243-18.458 18.483v41.216c0 10.214 8.243 18.483 18.458 18.483s18.483-8.243 18.483-18.483v-41.216c0-10.24-8.243-18.483-18.483-18.483v0zM363.341 20.915c-6.375 0-12.57 3.328-16 9.216l-20.659 35.687c-5.12 8.858-2.074 20.147 6.759 25.241 8.858 5.171 20.122 2.099 25.216-6.733l20.634-35.712c5.12-8.832 2.099-20.122-6.707-25.216-2.918-1.664-6.093-2.483-9.241-2.483v0zM444.416 100.147c-3.149 0-6.323 0.793-9.19 2.483l-35.738 20.634c-8.858 5.094-11.878 16.409-6.759 25.216 5.069 8.858 16.384 11.878 25.216 6.784l35.738-20.634c8.832-5.094 11.878-16.409 6.759-25.216-3.405-5.939-9.651-9.267-16.026-9.267v0zM475.059 209.382h-41.216c-10.214 0-18.483 8.243-18.483 18.458s8.243 18.483 18.483 18.483h41.216c10.189 0 18.483-8.243 18.483-18.483-0.026-10.215-8.294-18.458-18.483-18.458v0zM411.289 298.624c-6.375 0-12.57 3.328-16.026 9.267-5.069 8.807-2.048 20.122 6.81 25.191l35.712 20.608c8.858 5.095 20.147 2.048 25.216-6.809 5.094-8.832 2.048-20.122-6.784-25.191l-35.738-20.608c-2.867-1.664-6.041-2.458-9.19-2.458v0zM347.136 364.647c-3.149 0-6.323 0.768-9.216 2.457-8.858 5.12-11.878 16.41-6.759 25.242l20.634 35.737c5.094 8.858 16.384 11.904 25.216 6.784 8.806-5.12 11.853-16.409 6.759-25.267l-20.634-35.738c-3.405-5.913-9.625-9.216-16-9.216v0z" />
<glyph unicode="&#x38;" d="M417.869 228.864c-2.637 28.723-16.256 54.681-38.4 73.139-22.169 18.432-50.227 27.136-78.874 24.525-28.697-2.637-54.681-16.281-73.113-38.477-0.384-0.487-0.512-1.050-0.793-1.536-12.339 4.864-25.651 7.783-39.603 7.783-51.789 0-95.693-37.478-105.549-86.759-45.158-1.152-81.536-38.272-81.536-83.687 0-36.634 24.525-69.606 59.187-80 7.501-2.457 15.181-3.712 22.886-3.712h222.336c8.601 0 17.229 1.587 24.601 4.403 39.629 12.416 66.279 48.717 66.279 90.342 0 5.376-0.717 10.522-1.587 15.642 18.151 22.093 26.803 49.869 24.166 78.336zM303.846 291.2c18.995 1.843 38.016-4.045 52.915-16.461 25.165-20.967 32.205-55.399 19.942-84.096-17.255 23.475-44.877 38.938-76.211 38.938-4.787 0-9.549-0.384-14.31-1.101-6.502 15.513-16.512 28.903-28.774 39.552 12.185 13.209 28.442 21.555 46.438 23.168zM317.44 78.029c-4.301-1.587-8.704-2.457-13.056-2.457h-222.31c-3.942 0-7.936 0.666-12.263 2.099-20.224 6.041-34.381 25.063-34.381 46.183 0 26.649 21.683 48.333 48.359 48.333 3.149 0 6.528-0.358 9.882-1.024l20.813-4.25 0.435 21.274c0.768 38.938 33.126 70.707 72.141 70.707 33.613 0 62.489-22.912 70.221-55.68l4.557-19.43 18.739 6.835c6.477 2.381 13.209 3.584 19.917 3.584 32.691 0 59.289-26.599 59.289-59.264 0.051-26.087-16.615-48.819-42.342-56.909zM409.165 316.595c5.069 0 10.137 2.15 13.619 6.4l22.528 27.034c6.298 7.501 5.274 18.688-2.253 24.96-7.552 6.297-18.714 5.248-24.935-2.253l-22.553-27.034c-6.323-7.501-5.248-18.688 2.253-24.96 3.328-2.816 7.347-4.147 11.341-4.147zM335.385 350.822c0.998-0.154 2.022-0.256 3.021-0.256 8.448 0 15.949 6.093 17.433 14.72l5.939 34.688c1.639 9.625-4.813 18.765-14.49 20.454-9.575 1.587-18.791-4.839-20.454-14.49l-5.939-34.662c-1.639-9.651 4.839-18.791 14.49-20.455zM243.379 356.121c2.637-7.168 9.395-11.571 16.589-11.571 2.048 0 4.122 0.333 6.144 1.075 9.165 3.405 13.849 13.568 10.496 22.759l-12.16 33.024c-3.405 9.216-13.594 13.901-22.758 10.496-9.191-3.379-13.85-13.543-10.496-22.759l12.185-33.024zM183.808 304.256c3.353-2.765 7.347-4.096 11.315-4.096 5.069 0 10.137 2.176 13.619 6.375 6.272 7.527 5.222 18.714-2.279 24.96l-27.034 22.502c-7.577 6.272-18.765 5.223-24.986-2.304-6.246-7.526-5.222-18.688 2.304-24.934l27.059-22.503zM436.992 133.862c-7.526 6.298-18.688 5.248-24.96-2.279-6.298-7.501-5.223-18.663 2.279-24.935l27.034-22.528c3.328-2.765 7.347-4.096 11.315-4.096 5.069 0 10.137 2.176 13.619 6.375 6.247 7.501 5.274 18.688-2.279 24.986l-27.008 22.477zM497.305 202.599l-34.637 5.99c-9.6 1.587-18.816-4.787-20.505-14.438-1.664-9.625 4.813-18.791 14.413-20.48l34.663-5.99c0.998-0.179 2.022-0.256 3.046-0.256 8.423 0 15.949 6.041 17.433 14.669 1.69 9.625-4.787 18.841-14.413 20.505zM436.966 263.322c2.663-7.143 9.395-11.597 16.615-11.597 2.048 0 4.096 0.333 6.118 1.075l33.050 12.186c9.19 3.405 13.901 13.593 10.471 22.758-3.379 9.19-13.543 13.875-22.733 10.496l-33.050-12.186c-9.19-3.353-13.824-13.542-10.471-22.733z" />
<glyph unicode="&#x39;" d="M417.894 270.925c-2.637 28.723-16.281 54.656-38.477 73.113-22.118 18.457-50.227 27.162-78.822 24.525-28.749-2.662-54.707-16.307-73.139-38.477-0.384-0.461-0.512-1.049-0.819-1.536-12.314 4.864-25.625 7.782-39.603 7.782-51.737 0-95.693-37.478-105.549-86.758-45.107-1.152-81.485-38.247-81.485-83.686 0-36.634 24.525-69.606 59.187-80.025 7.45-2.457 15.181-3.712 22.912-3.712h222.285c8.678 0 17.255 1.587 24.627 4.403 39.654 12.416 66.279 48.717 66.279 90.342 0 5.351-0.717 10.496-1.587 15.591 18.176 22.118 26.777 49.946 24.192 78.439zM303.795 333.287c19.303 1.741 38.118-4.071 52.966-16.461 14.873-12.391 24.038-29.85 25.83-49.127 1.101-12.211-1.152-24.090-5.863-35.047-17.28 23.526-44.902 38.989-76.237 38.989-4.813 0-9.6-0.384-14.336-1.101-6.502 15.513-16.512 28.902-28.8 39.552 12.211 13.21 28.442 21.529 46.438 23.194zM317.44 120.064c-4.352-1.613-8.729-2.457-13.107-2.457h-222.259c-3.942 0-7.936 0.64-12.263 2.074-20.249 6.067-34.381 25.063-34.381 46.208 0 26.624 21.683 48.307 48.282 48.307 3.225 0 6.553-0.358 9.933-1.050l20.813-4.25 0.435 21.248c0.768 38.989 33.127 70.733 72.115 70.733 33.638 0 62.489-22.887 70.221-55.68l4.582-19.405 18.739 6.835c6.502 2.381 13.209 3.584 19.942 3.584 32.691 0 59.264-26.599 59.264-59.29 0.051-26.035-16.589-48.768-42.317-56.858zM409.165 358.656c5.069 0 10.112 2.151 13.594 6.374l22.579 27.034c6.247 7.501 5.248 18.714-2.253 24.986-7.603 6.272-18.739 5.248-24.96-2.253l-22.579-27.034c-6.272-7.501-5.274-18.688 2.253-24.986 3.353-2.791 7.347-4.122 11.366-4.122zM335.385 392.883c0.998-0.154 1.997-0.256 3.021-0.256 8.448 0 15.949 6.093 17.433 14.72l5.939 34.663c1.664 9.651-4.813 18.816-14.438 20.454-9.549 1.639-18.841-4.813-20.48-14.464l-5.939-34.663c-1.664-9.625 4.813-18.79 14.464-20.454zM243.328 398.183c2.662-7.168 9.421-11.597 16.64-11.597 2.048 0 4.096 0.358 6.144 1.101 9.139 3.379 13.849 13.543 10.471 22.758l-12.16 33.024c-3.43 9.19-13.619 13.875-22.784 10.522-9.113-3.43-13.85-13.594-10.445-22.784l12.135-33.024zM183.808 346.291c3.328-2.739 7.347-4.096 11.315-4.096 5.069 0 10.137 2.176 13.645 6.375 6.246 7.526 5.197 18.714-2.304 24.986l-27.034 22.502c-7.603 6.272-18.765 5.197-24.986-2.304-6.272-7.527-5.222-18.688 2.304-24.96l27.059-22.502zM436.992 175.897c-7.501 6.272-18.688 5.223-24.96-2.279s-5.274-18.663 2.279-24.986l27.034-22.502c3.303-2.739 7.296-4.096 11.315-4.096 5.094 0 10.112 2.202 13.619 6.375 6.298 7.526 5.223 18.688-2.279 24.96l-27.008 22.528zM497.305 244.633l-34.663 6.016c-9.523 1.587-18.816-4.813-20.48-14.439-1.639-9.625 4.813-18.791 14.438-20.48l34.637-6.016c1.050-0.154 2.074-0.256 3.046-0.256 8.499 0 15.974 6.093 17.459 14.695 1.689 9.625-4.787 18.791-14.438 20.48zM436.966 305.382c2.611-7.168 9.395-11.597 16.589-11.597 2.022 0 4.122 0.359 6.118 1.101l33.075 12.186c9.19 3.379 13.875 13.568 10.522 22.758-3.43 9.19-13.619 13.875-22.81 10.496l-33.050-12.186c-9.113-3.405-13.824-13.593-10.445-22.758zM102.067 54.195l-22.528-27.059c-6.297-7.501-5.273-18.688 2.253-24.96 3.328-2.739 7.322-4.122 11.315-4.122 5.069 0 10.138 2.151 13.619 6.375l22.528 27.034c6.323 7.526 5.274 18.688-2.253 24.96-7.501 6.298-18.688 5.274-24.934-2.227zM196.608 54.195l-22.553-27.059c-6.272-7.501-5.248-18.688 2.253-24.96 3.328-2.739 7.322-4.122 11.341-4.122 5.069 0 10.137 2.151 13.594 6.375l22.553 27.034c6.272 7.526 5.299 18.688-2.253 24.96-7.577 6.298-18.688 5.274-24.935-2.227zM291.123 54.195l-22.553-27.059c-6.298-7.501-5.248-18.688 2.253-24.96 3.328-2.739 7.347-4.122 11.315-4.122 5.069 0 10.137 2.151 13.619 6.375l22.553 27.034c6.272 7.526 5.248 18.688-2.279 24.96-7.526 6.298-18.663 5.274-24.909-2.227z" />
<glyph unicode="&#x61;" d="M429.645 134.195c-34.381 15.539-61.209 24.269-106.137 34.279-2.381 0.538-4.966 0.819-7.885 0.819-2.739 0-27.315-0.461-37.043-15.821l-20.839-32.896c-0.077 0-0.154 0.026-0.333 0.026-0.077 0-0.205 0-0.333 0-1.305 0-4.992 0.461-9.447 3.738-18.073 13.159-35.379 27.93-52.659 44.979-17.049 17.305-32.231 35.251-45.312 53.197-3.2 4.352-3.815 8.295-3.686 10.112l32.717 20.762c14.976 9.523 17.715 35.277 14.899 45.85-9.677 36.608-22.938 74.829-33.485 104.166-6.272 17.203-30.541 22.784-41.293 22.784-4.787 0-9.267-0.793-13.21-2.329-30.951-12.058-58.65-30.080-82.278-53.683-6.349-6.426-12.416-13.389-18.688-21.325l-4.403-5.504-0.153-7.014c-2.074-87.962 37.145-179.098 108.749-251.392l1.433-1.51c69.197-69.274 158.285-109.030 244.531-109.056l13.389 0.281 5.529 4.275c7.603 5.939 14.72 12.262 21.427 18.867 23.45 23.603 41.472 51.303 53.427 82.279 7.091 18.074-2.944 46.873-18.918 54.118zM367.769 25.523c-4.25-4.224-8.807-8.295-13.389-12.16-75.853 0.154-154.803 35.712-216.038 97.024l-1.92 1.997c-62.080 62.72-97.382 141.415-97.51 216.96 4.071 4.966 8.038 9.344 11.879 13.261 19.507 19.481 42.368 34.483 68.070 44.595 1.715-0.103 4.326-0.768 6.246-1.485 9.139-25.523 21.53-61.389 30.592-95.283 0.051-1.69-0.333-4.275-0.87-6.067l-46.413-29.517-1.254-19.815c-0.768-12.083 3.2-24.73 11.085-35.533 14.439-19.815 30.951-39.168 49.459-57.984 18.739-18.483 37.401-34.432 56.96-48.615 8.986-6.605 19.328-10.496 29.645-11.187l0.999-0.128h23.833l11.418 18.099 18.841 29.721c1.767 0.512 4.25 0.921 5.683 1.024 40.832-9.113 64.563-16.589 95.232-30.259 0.973-1.971 1.741-4.992 1.69-6.81-10.010-25.523-24.96-48.409-44.237-67.84zM444.57 418.586c-70.221 70.323-177.050 87.859-265.933 43.623-9.6-4.787-13.542-16.487-8.755-26.112 4.813-9.651 16.512-13.568 26.087-8.781 73.83 36.813 162.714 22.221 221.107-36.275 55.859-55.936 71.783-142.029 39.629-214.247-4.327-9.856 0.051-21.376 9.882-25.753 2.56-1.152 5.248-1.664 7.911-1.664 7.45 0 14.541 4.301 17.792 11.546 38.579 86.861 19.43 190.413-47.719 257.664zM210.202 213.913c0-4.327 0.64-8.678 1.305-13.645h101.734v24.039h-71.706c0.64 29.005 69.35 37.453 69.35 86.784 0 29.005-22.887 45.44-49.894 45.44-36.736 0-50.765-30.745-50.765-30.745l20.736-13.85c0 0 9.702 18.176 27.648 18.176 12.954 0 23.322-8.013 23.322-21.427 0-30.49-71.731-39.347-71.731-94.771zM375.552 353.946l-66.099-96.973v-17.101h71.731v-39.603h27.443v39.629h19.865v23.142h-19.865v90.906h-33.075zM381.184 310.682v-47.616h-42.343v0.409l35.43 49.126c4.096 5.863 7.577 14.055 7.577 14.055h0.461c-0.026 0.026-1.127-8.422-1.127-15.974z" />
<glyph unicode="&#x62;" d="M360.32-25.6c-7.091 0-14.183 2.918-19.251 8.627l-222.106 249.677 216.704 245.017c9.447 10.65 25.805 11.623 36.377 2.227 10.649-9.421 11.673-25.702 2.227-36.352l-186.419-210.79 191.693-215.501c9.472-10.649 8.525-26.931-2.099-36.377-4.915-4.377-11.059-6.528-17.127-6.528z" />
<glyph unicode="&#x63;" d="M153.344-25.6c-6.067 0-12.211 2.151-17.126 6.528-10.599 9.447-11.571 25.728-2.099 36.377l191.693 215.501-186.419 210.765c-9.421 10.675-8.422 26.957 2.253 36.377 10.599 9.421 26.931 8.397 36.352-2.227l216.704-245.017-222.106-249.677c-5.069-5.709-12.135-8.627-19.251-8.627z" />
<glyph unicode="&#x64;" d="M483.763 486.4h-453.786c-16.154 0-29.977-12.672-29.977-28.825v-452.224c0-16.077 13.824-30.95 29.977-30.95h453.811c16.128 0 28.211 14.873 28.211 30.95v452.224c0 16.154-12.083 28.826-28.237 28.826zM460.8 435.2v-105.6h-192v105.6h192zM51.2 179.2v102.4h409.6v-102.4h-409.6zM243.2 435.2v-105.6h-192v105.6h192zM51.2 25.6v102.4h192v-102.4h-192zM268.8 25.6v102.4h192v-102.4h-192z" />
<glyph unicode="&#x65;" d="M256.051 406.298c47.846-56.141 127.974-157.44 127.974-239.923 0-56.141-34.202-139.981-127.539-140.774-94.208 0.793-128.41 84.633-128.41 140.774 0 82.458 80.128 183.783 127.975 239.923zM256.051 486.4c-9.575-20.147-179.174-179.993-179.174-320.026 0-89.984 59.085-190.95 179.174-191.974 120.089 1.024 179.175 101.99 179.175 191.975 0 140.032-169.6 299.878-179.174 320.026v0z" />
<glyph unicode="&#x66;" d="M151.296-25.6c-3.686 0-7.322 1.024-10.599 3.098-8.115 5.171-11.29 15.488-7.501 24.371l66.995 156.339h-101.401c-7.808 0-14.848 4.582-17.997 11.725-3.174 7.117-1.817 15.462 3.43 21.223l262.579 288.793c6.579 7.322 17.587 8.55 25.677 2.995 8.115-5.555 10.88-16.256 6.502-25.063l-90.777-181.555h99.405c7.783 0 14.822-4.582 17.997-11.673 3.175-7.117 1.843-15.411-3.353-21.197l-236.288-262.553c-3.865-4.275-9.242-6.503-14.669-6.503zM143.309 197.581h86.784c6.605 0 12.8-3.328 16.435-8.858 3.661-5.529 4.301-12.493 1.664-18.611l-31.898-74.394 127.129 141.235h-87.065c-6.835 0-13.159 3.533-16.743 9.344s-3.917 13.056-0.845 19.174l41.165 82.381-136.627-150.272z" />
<glyph unicode="&#x67;" d="M505.625 419.379l-51.2 58.317c-4.813 5.504-11.776 8.678-19.098 8.704-6.656 1.050-14.336-3.072-19.2-8.525l-51.2-57.216c-4.199-4.685-6.528-10.778-6.528-17.075v-249.984h-25.6v248.883c0 6.221-2.253 12.237-6.375 16.896l-51.2 58.317c-4.813 5.504-11.776 8.678-19.098 8.704-6.912 1.050-14.336-3.072-19.2-8.525l-51.2-57.216c-4.198-4.685-6.528-10.778-6.528-17.075v-249.984h-25.6v248.883c0 6.221-2.253 12.237-6.375 16.896l-51.2 58.317c-4.838 5.504-11.776 8.678-19.097 8.704-7.168 1.050-14.336-3.072-19.2-8.525l-51.2-57.216c-4.199-4.685-6.528-10.778-6.528-17.075v-403.584c0-14.157 11.443-25.6 25.6-25.6h102.4c14.157 0 25.6 11.443 25.6 25.6v102.4h25.6v-102.4c0-14.157 11.443-25.6 25.6-25.6h102.4c14.157 0 25.6 11.443 25.6 25.6v102.4h25.6v-102.4c0-14.157 11.443-25.6 25.6-25.6h102.4c14.157 0 25.6 11.443 25.6 25.6v402.483c0 6.221-2.253 12.237-6.375 16.896zM102.4 25.6h-51.2v368.205l25.421 28.416 25.779-29.389v-367.232zM281.6 25.6h-51.2v368.205l25.421 28.416 25.779-29.389v-367.232zM460.8 25.6h-51.2v368.205l25.421 28.416 25.779-29.389v-367.232z" />
<glyph unicode="&#x68;" d="M483.763 486.4h-453.786c-16.154 0-29.977-12.672-29.977-28.825v-452.224c0-16.077 13.824-30.95 29.977-30.95h453.786c16.154 0 28.237 14.873 28.237 30.95v452.224c0 16.154-12.083 28.826-28.237 28.826zM460.8 435.2v-179.2h-179.2v179.2h179.2zM230.4 435.2v-179.2h-179.2v179.2h179.2zM51.2 25.6v179.2h179.2v-179.2h-179.2zM281.6 25.6v179.2h179.2v-179.2h-179.2z" />
<glyph unicode="&#x69;" d="M467.738 427.853l-204.8 57.6c-0.384 0.103-0.768-0.025-1.152 0.051-1.894 0.461-3.789 0.256-5.786 0.256s-3.84 0.205-5.786-0.256c-0.358-0.103-0.768 0.051-1.152-0.051l-204.8-57.6c-11.034-3.123-18.663-13.184-18.663-24.653v-403.2c0-8.038 3.763-15.591 10.189-20.454 4.48-3.379 9.907-5.146 15.411-5.146 2.381 0 4.761 0.333 7.066 0.998l197.735 56.781 197.735-56.781c2.304-0.666 4.685-0.998 7.065-0.998 5.504 0 10.931 1.767 15.411 5.146 6.425 4.864 10.189 12.416 10.189 20.454v403.2c0 11.469-7.629 21.529-18.663 24.653zM76.8 383.821l153.6 43.187v-348.928l-153.6-44.109v349.85zM435.2 33.971l-153.6 44.109v348.928l153.6-43.213v-349.824z" />
<glyph unicode="&#x6a;" d="M332.8 256h-51.2v51.2c0 14.131-11.443 25.6-25.6 25.6s-25.6-11.469-25.6-25.6v-51.2h-51.2c-14.157 0-25.6-11.469-25.6-25.6s11.443-25.6 25.6-25.6h51.2v-51.2c0-14.157 11.443-25.6 25.6-25.6s25.6 11.443 25.6 25.6v51.2h51.2c14.157 0 25.6 11.469 25.6 25.6s-11.443 25.6-25.6 25.6zM256 486.4c-141.389 0-256-114.611-256-256s114.611-256 256-256 256 114.611 256 256-114.611 256-256 256zM256 25.6c-112.921 0-204.8 91.878-204.8 204.8s91.879 204.8 204.8 204.8 204.8-91.878 204.8-204.8-91.878-204.8-204.8-204.8z" />
<glyph unicode="&#x6b;" d="M256 76.237c-13.44 0-26.931 5.146-37.145 15.437l-203.443 203.187c-20.531 20.48-20.531 53.786 0 74.317 20.505 20.531 53.785 20.531 74.317 0l166.272-166.119 166.272 166.119c20.557 20.531 53.786 20.531 74.317 0s20.531-53.837 0-74.317l-203.443-203.213c-10.24-10.265-23.731-15.411-37.145-15.411v0z" />
<glyph unicode="&#x6c;" d="M125.875 406.682c-9.907 0-19.43-1.434-28.698-3.61 28.903 25.677 66.79 41.395 108.39 41.395 11.571 0 20.966 9.37 20.966 20.966 0.025 11.597-9.395 20.966-20.966 20.966-113.331 0-205.568-92.237-205.568-205.593 0-69.402 56.474-125.901 125.875-125.901s125.85 56.525 125.85 125.901-56.448 125.875-125.85 125.875zM125.875 196.889c-46.336 0-83.917 37.658-83.917 83.917 0 46.285 37.606 83.942 83.917 83.942s83.917-37.658 83.917-83.942c0-46.233-37.607-83.917-83.917-83.917zM386.125 406.682c-9.907 0-19.456-1.434-28.697-3.61 28.902 25.651 66.765 41.395 108.365 41.395 11.597 0 20.941 9.37 20.941 20.966 0.026 11.597-9.344 20.966-20.941 20.966-113.357 0-205.517-92.237-205.517-205.593 0-69.402 56.423-125.901 125.849-125.901 69.401 0 125.875 56.525 125.875 125.901s-56.474 125.875-125.875 125.875zM386.125 196.889c-46.31 0-83.917 37.658-83.917 83.917 0 46.285 37.632 83.942 83.917 83.942 46.259 0 83.917-37.658 83.917-83.942 0-46.233-37.658-83.917-83.917-83.917z" />
<glyph unicode="&#x6d;" d="M306.432 486.4c-11.571 0-20.966-9.369-20.966-20.966s9.395-20.966 20.966-20.966c41.6 0 79.488-15.719 108.39-41.395-9.267 2.176-18.791 3.61-28.697 3.61-69.401 0-125.85-56.474-125.85-125.875s56.448-125.901 125.85-125.901 125.875 56.499 125.875 125.901c0 113.357-92.237 205.593-205.568 205.593zM386.125 196.889c-46.31 0-83.917 37.658-83.917 83.917 0 46.285 37.632 83.942 83.917 83.942 46.336 0 83.917-37.658 83.917-83.942 0-46.233-37.581-83.917-83.917-83.917zM46.208 486.4c-11.597 0-20.966-9.369-20.966-20.966s9.344-20.966 20.941-20.966c41.6 0 79.463-15.719 108.365-41.395-9.216 2.176-18.765 3.61-28.672 3.61-69.401 0-125.875-56.474-125.875-125.875s56.474-125.901 125.875-125.901c69.427 0 125.85 56.525 125.85 125.901 0 113.357-92.186 205.593-205.517 205.593zM125.875 196.889c-46.259 0-83.917 37.658-83.917 83.917 0 46.285 37.683 83.942 83.917 83.942 46.31 0 83.917-37.658 83.917-83.942 0-46.233-37.607-83.917-83.917-83.917z" />
<glyph unicode="&#x6e;" d="M179.2 384h179.2v-51.2h-179.2v51.2zM178.483 281.6h46.080v-46.080h-46.080v46.080zM245.555 281.6h46.106v-46.080h-46.106v46.080zM312.32 281.6h46.080v-46.080h-46.080v46.080zM178.483 215.040h46.080v-46.080h-46.080v46.080zM245.555 215.040h46.106v-46.080h-46.106v46.080zM312.32 215.040h46.080v-46.080h-46.080v46.080zM179.2 148.48h46.080v-46.080h-46.080v46.080zM245.555 148.48h46.106v-46.080h-46.106v46.080zM312.32 148.48h46.080v-46.080h-46.080v46.080zM409.6 486.4h-281.6c-28.237 0-51.2-22.963-51.2-51.2v-409.6c0-28.237 22.963-51.2 51.2-51.2h281.6c28.237 0 51.2 22.963 51.2 51.2v409.6c0 28.237-22.963 51.2-51.2 51.2zM128 25.6v409.6h281.6l0.051-409.6h-281.651z" />
<glyph unicode="&#x6f;" d="M256 486.4c-141.363 0-256-114.611-256-256s114.637-256 256-256c141.389 0 256 114.611 256 256s-114.611 256-256 256zM316.647 309.478h-38.502c-4.557 0-9.625-5.965-9.625-13.978v-27.801h48.128v-39.603h-48.128v-118.963h-45.415v118.963h-41.216v39.629h41.191v23.296c0 33.434 23.194 60.647 55.040 60.647h38.502v-42.189z" />
<glyph unicode="&#x70;" d="M256 486.4c-141.389 0-256-114.611-256-256s114.611-256 256-256 256 114.611 256 256-114.611 256-256 256zM360.089 276.711c0.128-2.202 0.179-4.378 0.179-6.528 0-66.637-50.739-143.463-143.463-143.463-28.441 0-54.938 8.346-77.287 22.656 3.917-0.486 7.936-0.691 12.006-0.691 23.629 0 45.363 8.038 62.618 21.606-22.042 0.384-40.679 14.95-47.104 34.995 3.097-0.563 6.246-0.921 9.498-0.921 4.608 0 9.063 0.615 13.312 1.767-23.065 4.659-40.448 25.011-40.448 49.459 0 0.205 0 0.435 0 0.64 6.809-3.814 14.541-6.093 22.835-6.349-13.542 9.037-22.425 24.473-22.425 41.958 0 9.242 2.509 17.894 6.835 25.344 24.857-30.49 62.029-50.611 103.936-52.711-0.845 3.712-1.305 7.552-1.305 11.495 0 27.853 22.579 50.406 50.406 50.406 14.49 0 27.623-6.118 36.813-15.923 11.495 2.253 22.298 6.451 32.026 12.237-3.738-11.776-11.75-21.657-22.144-27.904 10.189 1.229 19.891 3.942 28.979 7.936-6.835-10.035-15.411-18.918-25.267-26.010z" />
<glyph unicode="&#x71;" d="M231.911 302.797c-6.425 22.656-16.845 29.363-32.999 29.363-1.741 0-3.507-0.231-5.197-0.717-7.014-1.971-12.57-7.808-15.667-16.486-3.174-8.832-3.405-17.997-0.64-28.493 4.941-18.688 18.227-32.23 31.616-32.23 1.741 0 3.507 0.231 5.171 0.717 14.618 4.122 23.782 26.47 17.715 47.846zM256 486.4c-141.363 0-256-114.611-256-256 0-141.363 114.637-256 256-256 141.389 0 256 114.637 256 256 0 141.389-114.611 256-256 256zM241.255 120.499c-16.077-7.834-33.408-8.678-40.089-8.678-1.28 0-1.997 0.026-2.125 0.026 0 0-0.487 0-1.305 0-10.419 0-62.464 2.406-62.464 49.767 0 46.592 56.653 50.202 74.035 50.202h0.461c-10.035 13.363-7.936 26.906-7.936 26.906-0.922-0.051-2.202-0.128-3.789-0.128-6.553 0-19.149 1.075-30.003 8.038-13.261 8.525-19.968 23.065-19.968 43.187 0 56.807 62.054 59.136 62.643 59.136h61.978v-1.331c0-6.938-12.442-8.243-20.941-9.421-2.841-0.384-8.627-0.998-10.266-1.843 15.667-8.371 18.227-21.529 18.227-41.165 0-22.349-8.755-34.151-18.023-42.445-5.734-5.171-10.291-9.19-10.291-14.592 0-5.299 6.221-10.727 13.389-17.050 11.776-10.342 27.904-24.499 27.904-48.256 0-24.627-10.573-42.24-31.437-52.352zM376.729 230.631h-40.397v-40.423h-25.6v40.423h-40.423v25.6h40.423v40.423h25.6v-40.423h40.397v-25.6zM208.589 199.705c-1.382 0-2.765-0.077-4.173-0.154-11.853-0.87-22.784-5.299-30.695-12.493-7.833-7.091-11.827-16.026-11.238-25.088 1.178-18.918 21.555-30.055 46.259-28.262 24.346 1.741 40.55 15.744 39.373 34.688-1.152 17.843-16.64 31.309-39.526 31.309z" />
<glyph unicode="&#x72;" d="M256 486.4c-141.389 0-256-114.611-256-256s114.611-256 256-256c141.363 0 256 114.611 256 256s-114.637 256-256 256zM273.536 169.702c-16.435 1.255-23.322 9.395-36.173 17.203-7.065-37.094-15.693-72.653-41.319-91.213-7.911 56.064 11.623 98.15 20.685 142.874-15.488 25.984 1.817 78.285 34.406 65.408 40.064-15.872-34.714-96.64 15.488-106.727 52.429-10.547 73.831 90.957 41.318 123.955-46.976 47.616-136.73 1.075-125.671-67.149 2.662-16.691 19.891-21.734 6.887-44.749-30.054 6.656-39.014 30.362-37.863 61.952 1.843 51.738 46.489 87.962 91.238 92.979 56.601 6.323 109.721-20.787 117.069-74.035 8.243-60.109-25.575-125.21-86.067-120.499z" />
<glyph unicode="&#x73;" d="M82.304 431.053l347.392-200.448-347.392-200.858v401.305zM82.304 486.4c-9.549 0-19.097-2.483-27.674-7.424-17.127-9.882-27.674-28.16-27.674-47.923v-401.305c0-19.763 10.573-38.041 27.699-47.949 8.55-4.915 18.125-7.399 27.648-7.399 9.575 0 19.149 2.509 27.725 7.45l347.366 200.858c17.101 9.882 27.648 28.185 27.648 47.923 0 19.763-10.573 38.042-27.673 47.923l-347.366 200.448c-8.576 4.915-18.15 7.399-27.699 7.399v0z" />
<glyph unicode="&#x74;" d="M33.767-24.883c-0.077 0-0.205 0-0.282 0-10.24 0.128-18.765 7.654-20.275 17.613l-0.665 2.944c-25.241 109.978-12.109 209.305 37.017 279.757 43.853 62.873 115.021 102.63 211.763 118.349v71.655c0 7.962 4.531 15.207 11.673 18.688 7.194 3.456 15.667 2.586 21.913-2.329l209.101-164.121c5.069-3.968 7.987-9.984 7.987-16.359 0-6.4-2.918-12.416-7.962-16.358l-209.101-164.122c-6.272-4.941-14.822-5.837-21.913-2.355-7.142 3.507-11.673 10.752-11.673 18.688v82.663c-77.159-10.547-187.187-56.013-206.951-226.355-1.229-10.445-10.112-18.355-20.633-18.355v0zM302.925 422.682v-46.899c0-10.471-7.808-19.303-18.151-20.634-93.927-11.955-161.561-46.771-201.088-103.475-31.232-44.723-41.37-97.178-42.035-144.896 58.215 129.229 180.915 153.037 239.13 156.8 5.786 0.409 11.366-1.664 15.539-5.581 4.199-3.917 6.605-9.421 6.605-15.155v-62.925l154.624 121.395-154.624 121.37z" />
<glyph unicode="&#x75;" d="M500.864 438.502l-36.199 36.199-213.274-213.325-209.561 209.562-36.199-36.199 209.561-209.561-209.715-209.741 36.199-36.224 209.715 209.767 213.274-213.274 36.199 36.199-213.274 213.274z" />
<glyph unicode="&#x76;" d="M103.296-1.587c-6.169 0-12.442 0.256-18.765 0.691-9.907 0.64-18.15 7.962-20.045 17.69-1.895 9.805 2.995 19.661 11.904 24.013 19.558 9.6 35.558 22.451 47.744 38.298-76.211 36.992-124.135 104.243-124.135 176.871 0 113.817 114.841 206.439 256 206.439s256-92.621 256-206.439c0-113.818-114.841-206.464-256-206.464-3.353 0-6.681 0.103-9.933 0.256-36.224-33.229-86.502-51.353-142.771-51.353v0zM256 418.355c-116.889 0-211.942-72.858-211.942-162.407 0-61.466 46.951-118.759 119.654-145.971 5.863-2.151 10.496-6.759 12.774-12.544s2.023-12.288-0.768-17.894l-1.305-2.611c-1.331-2.841-2.688-5.658-4.327-8.397-3.917-6.553-8.269-12.851-13.082-18.791 25.549 7.347 47.719 20.199 64.793 37.863 4.48 4.557 10.624 6.861 17.178 6.656 5.581-0.358 11.238-0.691 17.024-0.691 116.838 0 211.943 72.858 211.943 162.407s-95.104 162.381-211.942 162.381v0z" />
<glyph unicode="&#x77;" d="M103.296-1.587c-6.169 0-12.442 0.256-18.765 0.691-9.907 0.64-18.15 7.962-20.045 17.69-1.895 9.805 2.995 19.661 11.904 24.013 19.558 9.6 35.558 22.451 47.744 38.298-76.211 36.992-124.135 104.243-124.135 176.871 0 113.817 114.841 206.439 256 206.439s256-92.621 256-206.439c0-113.818-114.841-206.464-256-206.464-3.353 0-6.681 0.103-9.933 0.256-36.224-33.229-86.502-51.353-142.771-51.353v0zM256 418.355c-116.889 0-211.942-72.858-211.942-162.407 0-61.466 46.951-118.759 119.654-145.971 5.863-2.151 10.496-6.759 12.774-12.544s2.023-12.288-0.768-17.894l-1.305-2.611c-1.331-2.841-2.688-5.658-4.327-8.397-3.917-6.553-8.269-12.851-13.082-18.791 25.549 7.347 47.719 20.199 64.793 37.863 4.48 4.557 10.419 6.861 17.178 6.656 5.581-0.358 11.238-0.691 17.024-0.691 116.838 0 211.943 72.858 211.943 162.407s-95.104 162.381-211.942 162.381v0zM157.542 280.217c-17.767 0-32.128-14.387-32.128-32.102s14.361-32.103 32.128-32.103c17.715 0 32.077 14.387 32.077 32.103s-14.336 32.102-32.077 32.102v0zM256 280.217c-17.767 0-32.128-14.387-32.128-32.102s14.362-32.103 32.128-32.103c17.715 0 32.077 14.387 32.077 32.103s-14.361 32.102-32.077 32.102v0zM354.457 280.217c-17.715 0-32.077-14.387-32.077-32.102s14.361-32.103 32.077-32.103 32.128 14.387 32.128 32.103c0 17.715-14.413 32.102-32.128 32.102v0z" />
<glyph unicode="&#x78;" d="M481.127 55.603c-10.752 3.405-20.199 8.653-28.16 15.591 43.008 34.893 65.255 85.99 57.498 135.322-7.347 46.49-40.295 85.888-88.064 105.37-3.687 1.511-7.475 1.485-11.136 0.819-18.253 77.568-102.605 136.423-203.725 136.423-114.432 0.026-207.539-75.264-207.539-167.834 0-58.214 37.811-112.154 98.048-142.49-9.293-11.289-21.145-20.505-35.405-27.546-8.192-3.993-12.647-13.005-10.906-21.939 1.741-8.909 9.242-15.591 18.355-16.205 5.094-0.409 10.189-0.589 15.207-0.589 39.859 0 75.495 11.827 103.629 32.615 31.104-56.141 102.835-87.142 176.538-73.728 1.305 0.256 2.509 0.461 3.738 0.743 20.557-13.491 45.107-20.505 71.168-20.505 12.954 0 26.291 1.69 39.705 5.197 8.653 2.253 14.797 10.010 15.104 18.944 0.256 9.011-5.504 17.050-14.055 19.815zM135.091 121.011c2.099 2.944 4.045 5.939 5.888 9.063 1.357 2.253 2.458 4.608 3.559 6.938l0.999 2.048c2.509 5.094 2.739 11.059 0.64 16.358-2.15 5.299-6.349 9.447-11.699 11.392-57.165 21.427-94.131 66.33-94.131 114.483 0 70.323 74.957 127.513 167.194 127.513 92.16 0 167.143-57.19 167.143-127.513s-75.008-127.488-167.143-127.488c-4.557 0-9.063 0.256-13.491 0.538-5.888 0.154-11.597-1.894-15.693-6.093-11.648-12.058-26.393-21.248-43.264-27.238zM412.8 92.006c-4.659-2.893-7.45-8.346-8.601-13.696-1.101-5.351 0.461-11.75 3.507-16.256 1.255-1.894 2.457-3.738 3.993-5.709 0.051-0.051 0.103-0.154 0.103-0.154-9.447 2.944-18.151 7.501-25.753 13.491-4.941 3.84-11.341 5.248-17.459 3.712-3.353-0.845-6.759-1.69-10.189-2.304-52.173-9.472-102.681 8.499-128.281 43.392 99.712 8.755 178.202 74.931 184.294 156.672 30.976-14.951 51.379-40.371 56.192-70.861 6.272-40.089-16.384-82.585-57.805-108.288z" />
<glyph unicode="&#x79;" d="M451.789 206.233c-3.917 0-7.526 0.793-10.829 2.355-27.289 12.851-62.771 29.978-94.643 48.512-9.139 5.299-24.883 24.781-21.094 41.472l8.32 37.069c-1.203 1.382-4.403 3.814-9.856 4.685-21.837 3.405-44.058 5.171-67.968 5.376-23.219-0.205-46.003-1.997-67.328-5.376-5.478-0.896-8.704-3.328-9.831-4.685l8.269-37.146c3.84-17.229-13.082-36.327-20.506-41.011-37.862-24.038-62.259-36.582-96.743-49.562-2.816-1.050-5.888-1.587-9.088-1.587-14.029 0-34.151 10.496-40.73 25.6-13.082 29.619-19.763 61.056-19.763 93.414 0 8.909 0.589 18.227 1.766 27.699l0.819 6.579 4.582 4.813c59.315 62.285 149.709 98.023 247.885 98.023 100.070 0 190.438-35.738 249.856-97.997l4.685-4.915 0.743-6.707c1.127-10.061 1.664-19.047 1.664-27.495-0.051-32.537-6.682-64-19.763-93.517-6.4-14.643-26.649-25.6-40.448-25.6v0zM56.013 249.344c0.845-0.691 2.304-1.587 3.661-2.176 29.363 11.341 51.481 22.861 85.171 44.263 0.051 0.205 0.973 1.536 1.767 2.867l-7.577 33.946c-2.355 9.728-0.281 20.275 5.863 29.44 7.911 11.75 21.53 19.865 37.299 22.298 23.219 3.687 47.975 5.658 73.523 5.863 25.907-0.231 50.713-2.176 74.163-5.863 15.719-2.457 29.312-10.573 37.223-22.298 6.118-9.113 8.243-19.686 5.888-29.67l-7.629-33.792c0.819-1.331 1.92-2.816 2.637-3.507 27.161-15.59 59.161-31.207 84.915-43.392 1.459 0.717 2.893 1.69 3.533 2.381 9.805 22.784 15.309 48.793 15.36 75.648 0 5.018-0.256 10.368-0.743 16.205-51.328 50.662-130.791 80.717-214.119 80.717h-2.406c-82.867 0-162.329-30.080-213.632-80.768-0.461-5.529-0.742-10.854-0.742-16.154 0-26.24 5.351-51.789 15.846-76.006v0zM174.31 219.161c-16.87 0-30.515-13.671-30.515-30.541s13.645-30.541 30.515-30.541 30.515 13.671 30.515 30.541-13.645 30.541-30.515 30.541v0zM254.157 219.161c-16.87 0-30.515-13.671-30.515-30.541s13.645-30.541 30.515-30.541 30.515 13.671 30.515 30.541-13.645 30.541-30.515 30.541v0zM334.003 219.161c-16.87 0-30.515-13.671-30.515-30.541s13.645-30.541 30.515-30.541 30.515 13.671 30.515 30.541-13.645 30.541-30.515 30.541v0zM174.31 139.264c-16.87 0-30.515-13.671-30.515-30.541 0-16.845 13.645-30.515 30.515-30.515s30.515 13.671 30.515 30.515c0 16.87-13.645 30.541-30.515 30.541v0zM254.157 139.264c-16.87 0-30.515-13.671-30.515-30.541 0-16.845 13.645-30.515 30.515-30.515s30.515 13.671 30.515 30.515c0 16.87-13.645 30.541-30.515 30.541v0zM334.003 139.264c-16.87 0-30.515-13.671-30.515-30.541 0-16.845 13.645-30.515 30.515-30.515s30.515 13.671 30.515 30.515c0 16.87-13.645 30.541-30.515 30.541v0zM174.31 59.417c-16.87 0-30.515-13.671-30.515-30.541s13.645-30.541 30.515-30.541 30.515 13.671 30.515 30.541-13.645 30.541-30.515 30.541v0zM254.157 59.417c-16.87 0-30.515-13.671-30.515-30.541s13.645-30.541 30.515-30.541 30.515 13.671 30.515 30.541-13.645 30.541-30.515 30.541v0zM334.003 59.417c-16.87 0-30.515-13.671-30.515-30.541s13.645-30.541 30.515-30.541 30.515 13.671 30.515 30.541-13.645 30.541-30.515 30.541v0z" />
<glyph unicode="&#x7a;" d="M230.912 302.387c-19.635 0-35.482-15.897-35.482-35.507 0-19.584 15.846-35.482 35.481-35.482 19.584 0 35.481 15.898 35.481 35.482-0.026 19.609-15.923 35.507-35.481 35.507v0zM323.712 302.387c-19.61 0-35.481-15.897-35.481-35.507 0-19.584 15.872-35.482 35.481-35.482 19.584 0 35.507 15.898 35.507 35.482-0.026 19.609-15.949 35.507-35.507 35.507v0zM416.538 302.387c-19.635 0-35.507-15.897-35.507-35.507 0-19.584 15.872-35.482 35.507-35.482 19.584 0 35.481 15.898 35.481 35.482-0.026 19.609-15.923 35.507-35.481 35.507v0zM230.912 209.587c-19.635 0-35.482-15.897-35.482-35.481s15.846-35.481 35.481-35.481c19.584 0 35.481 15.872 35.481 35.481s-15.923 35.481-35.481 35.481v0zM323.712 209.587c-19.61 0-35.481-15.897-35.481-35.481s15.872-35.481 35.481-35.481c19.584 0 35.507 15.872 35.507 35.481s-15.949 35.481-35.507 35.481v0zM416.538 209.587c-19.635 0-35.507-15.897-35.507-35.481s15.872-35.481 35.507-35.481c19.584 0 35.481 15.872 35.481 35.481s-15.923 35.481-35.481 35.481v0zM230.912 116.787c-19.635 0-35.482-15.872-35.482-35.481s15.846-35.507 35.481-35.507c19.584 0 35.481 15.897 35.481 35.507s-15.923 35.481-35.481 35.481v0zM323.712 116.787c-19.61 0-35.481-15.872-35.481-35.481s15.872-35.507 35.481-35.507c19.584 0 35.507 15.897 35.507 35.507s-15.949 35.481-35.507 35.481v0zM416.538 116.787c-19.635 0-35.507-15.872-35.507-35.481s15.872-35.507 35.507-35.507c19.584 0 35.481 15.897 35.481 35.507s-15.923 35.481-35.481 35.481v0zM429.645-24.218h-231.501v43.673h231.501c24.089 0 43.673 19.61 43.673 43.673v334.797c0 24.064-19.584 43.673-43.673 43.673h-231.501v43.699h231.501c48.205 0 87.347-39.168 87.347-87.347v-334.822c0-48.179-39.142-87.347-87.347-87.347v0zM128.384-25.6c-16.666 0-33.28 2.381-49.408 7.040-7.987 2.329-15.718 5.146-23.808 8.729l-7.245 3.175-3.507 7.065c-32.102 64.615-49.229 143.642-49.434 228.557v2.509c0.205 85.197 17.331 164.377 49.434 228.889l3.559 7.142 7.296 3.149c8.55 3.738 16.333 6.579 23.757 8.678 26.112 7.629 53.709 9.088 80.589 4.327l18.048-3.2v-169.549h-48.231v-161.050h48.231v-169.523l-18.048-3.175c-10.343-1.817-20.889-2.765-31.232-2.765v0zM80 27.161c3.737-1.433 7.424-2.663 11.136-3.738 14.003-4.045 28.314-5.786 42.88-5.171v87.987h-4.583c-24.038 0-43.673 19.61-43.673 43.673v160.999c0 24.064 19.635 43.673 43.673 43.673h4.583v88.038c-14.387 0.461-28.851-1.152-42.88-5.248-3.533-1.024-7.194-2.253-11.136-3.763-26.624-56.755-40.909-125.747-41.319-200.32l0.384-1.767-0.384-2.509c0.282-75.469 14.566-144.794 41.319-201.856v0zM450.663 329.677h-251.161v83.251h251.161v-83.251zM221.338 351.514h207.463v39.577h-207.463v-39.577z" />
</font>
</defs>
</svg>
